<?xml version="1.0" encoding="UTF-8"?>
<svg id="_Слой_6" data-name="Слой 6" xmlns="http://www.w3.org/2000/svg" viewBox="0 0 800 800">
  <defs>
    <style>
      .cls-1 {
        fill: #f5be6b;
      }

      .cls-1, .cls-2, .cls-3, .cls-4, .cls-5, .cls-6 {
        stroke: #000;
        stroke-miterlimit: 10;
        stroke-width: 4px;
      }

      .cls-2 {
        fill: #a1bedc;
      }

      .cls-3 {
        fill: #b8cd98;
      }

      .cls-4 {
        fill: #66c;
      }

      .cls-6 {
        fill: none;
      }
    </style>
  </defs>
  <path class="cls-4" d="M562.94,665.23h93.97c26.99-14.3,31.7-47.56,30.13-86.85-.29-7.21-3-22.26-7.89-52.4-3.53-21.71-5.29-32.57-6.46-38.04-6.69-31.38-25.35-86.8-44.47-86.13-8.77.31-15.05,12.32-25.11,31.58-9.53,18.25-13.74,35.01-15.78,46.65-4.61.15-7.14.2-8.86.23-1.73.03-21.98.25-37.05-.23-2.04-11.64-6.25-28.4-15.78-46.65-10.06-19.26-16.33-31.28-25.11-31.58-19.13-.67-37.79,54.75-44.47,86.13-1.17,5.47-2.93,16.33-6.46,38.04-4.89,30.13-7.6,45.19-7.89,52.4-1.58,39.29,3.13,72.55,30.13,86.85h93.97"/>
  <path class="cls-4" d="M479.24,541.71c18.02-16.05,33.33-14.13,45.91,5.74"/>
  <path class="cls-4" d="M601.2,547.43c18.02-16.05,33.33-14.13,45.91,5.74"/>
  <path class="cls-4" d="M539.74,621.22c5.74-.71,16.33-2.8,27.26-10.05,13.62-9.04,20.01-20.97,22.48-26.33"/>
  <g>
    <path class="cls-1" d="M473.89,133.88c-10.46,22.67-15.74,44.17-17.27,51.8-4.59,22.92-9.96,53.54-14.39,90.64-1.78,7.76-5.59,29.1,4.36,52.92,7.57,18.11,19.52,29.07,25.85,34.13h185.6c27.07-14.33,31.79-47.66,30.21-87.05.72-2.07-12.56-81.59-14.39-90.64-6.71-31.45-25.42-86.99-44.6-86.33-8.8.31-15.09,12.35-25.18,31.65-9.56,18.29-13.78,35.09-15.83,46.76-13.83.36-21.62.53-46.04,0-2.31-11.67-6.73-28.31-15.83-46.76l-52.52,2.88Z"/>
    <path class="cls-1" d="M526.41,131c2.53,4.83-8.22,26.47-23.74,27.34-15.54.87-30.96-19.34-28.97-24.47.96-2.49,5.32-1.64,27.53-2.86,20.21-1.11,24.02-2.22,25.18,0Z"/>
  </g>
  <path class="cls-1" d="M594.49,304.26c-1.39,6.14-7,10.88-13.93,11.82-6.19.84-12.5-1.48-16.28-5.97,0-9.09,0-13.65,0-13.65s0,4.37,0,13.14c-3.78,4.49-10.09,6.81-16.28,5.97-6.45-.88-11.79-5.6-13.93-11.82"/>
  <path class="cls-5" d="M548.48,271.66c5.44-6.92,24.55-7.86,31.14-1.5,7.79,7.52-3.07,24.09-13.51,24.61-10.47.52-24.07-14.92-17.63-23.11Z"/>
  <path class="cls-6" d="M487.78,227.7c18.07-16.09,33.42-14.17,46.04,5.76"/>
  <path class="cls-6" d="M590.67,234.15c18.07-16.09,33.42-14.17,46.04,5.76"/>
  <g>
    <path class="cls-2" d="M145.33,434.64c-10.46,22.67-15.74,44.17-17.27,51.8-4.59,22.92-9.96,53.54-14.39,90.64-1.78,7.76-5.59,29.1,4.36,52.92,7.57,18.11,19.52,29.07,25.85,34.13h185.6c27.07-14.33,31.79-47.66,30.21-87.05.72-2.07-12.56-81.59-14.39-90.64-6.71-31.45-25.42-86.99-44.6-86.33-8.8.31-15.09,12.35-25.18,31.65-9.56,18.29-13.78,35.09-15.83,46.76-13.83.36-21.62.53-46.04,0-2.31-11.67-6.73-28.31-15.83-46.76l-52.52,2.88Z"/>
    <path class="cls-2" d="M197.85,431.77c2.53,4.83-8.22,26.47-23.74,27.34-15.54.87-30.96-19.34-28.97-24.47.96-2.49,5.32-1.64,27.53-2.86,20.21-1.11,24.02-2.22,25.18,0Z"/>
  </g>
  <path class="cls-2" d="M265.93,605.02c-1.39,6.14-7,10.88-13.93,11.82-6.19.84-12.5-1.48-16.28-5.97,0-9.09,0-13.65,0-13.65s0,4.37,0,13.14c-3.78,4.49-10.09,6.81-16.28,5.97-6.45-.88-11.79-5.6-13.93-11.82"/>
  <path class="cls-5" d="M219.92,572.42c5.44-6.92,24.55-7.86,31.14-1.5,7.79,7.52-3.07,24.09-13.51,24.61-10.47.52-24.07-14.92-17.63-23.11Z"/>
  <path class="cls-6" d="M159.22,528.46c18.07-16.09,33.42-14.17,46.04,5.76"/>
  <path class="cls-6" d="M262.11,534.91c18.07-16.09,33.42-14.17,46.04,5.76"/>
  <path class="cls-3" d="M234.31,358.1h92.56c26.59-14.08,31.23-46.81,29.67-85.49-.28-7.1-2.95-21.91-7.77-51.58-3.47-21.37-5.21-32.06-6.36-37.45-6.59-30.89-24.97-85.44-43.81-84.78-8.64.3-14.82,12.13-24.73,31.09-9.39,17.97-13.54,34.47-15.54,45.93-4.54.14-7.04.2-8.73.23-1.7.03-21.65.24-36.49-.23-2.01-11.46-6.16-27.96-15.54-45.93-9.91-18.96-16.09-30.79-24.73-31.09-18.84-.66-37.22,53.9-43.81,84.78-1.15,5.38-2.89,16.07-6.36,37.45-4.82,29.66-7.49,44.48-7.77,51.58-1.55,38.68,3.09,71.42,29.67,85.49h92.56"/>
  <path class="cls-3" d="M151.86,236.51c17.75-15.8,32.82-13.91,45.22,5.65"/>
  <path class="cls-3" d="M271.98,242.14c17.75-15.8,32.82-13.91,45.22,5.65"/>
  <path class="cls-3" d="M211.46,314.78c5.65-.7,16.09-2.75,26.85-9.89,13.41-8.9,19.71-20.64,22.15-25.92"/>
</svg>